<svg id="レイヤー_1" data-name="レイヤー 1" xmlns="http://www.w3.org/2000/svg" viewBox="0 0 96 96"><defs><style>.cls-1{fill:#26a69a;}</style></defs><title>アートボード 1</title><path id="パス_1014" data-name="パス 1014" class="cls-1" d="M8.73,91.64a4.37,4.37,0,1,1-4.37-4.37,4.37,4.37,0,0,1,4.37,4.37ZM21.82,69.82a4.37,4.37,0,1,0,4.36,4.36,4.35,4.35,0,0,0-4.36-4.36Zm0,17.45a4.37,4.37,0,1,0,4.36,4.37h0A4.37,4.37,0,0,0,21.82,87.27ZM39.27,52.36a4.37,4.37,0,1,0,4.37,4.37,4.37,4.37,0,0,0-4.37-4.37Zm0,17.46a4.37,4.37,0,1,0,4.37,4.36,4.36,4.36,0,0,0-4.37-4.36Zm0,17.45a4.37,4.37,0,1,0,4.37,4.37,4.37,4.37,0,0,0-4.37-4.37ZM56.73,34.91a4.37,4.37,0,1,0,4.36,4.36h0a4.36,4.36,0,0,0-4.36-4.36Zm0,17.45a4.37,4.37,0,1,0,4.36,4.37h0a4.37,4.37,0,0,0-4.36-4.37Zm0,17.46a4.37,4.37,0,1,0,4.36,4.36,4.37,4.37,0,0,0-4.36-4.36Zm0,17.45a4.37,4.37,0,1,0,4.36,4.37h0a4.37,4.37,0,0,0-4.36-4.37ZM74.18,17.46a4.36,4.36,0,1,0,4.37,4.36h0A4.37,4.37,0,0,0,74.18,17.46Zm0,17.45a4.37,4.37,0,1,0,4.37,4.36,4.36,4.36,0,0,0-4.37-4.36Zm0,17.46a4.36,4.36,0,1,0,4.37,4.36,4.36,4.36,0,0,0-4.37-4.36h0Zm0,17.45a4.37,4.37,0,1,0,4.37,4.36,4.36,4.36,0,0,0-4.37-4.36Zm0,17.45a4.37,4.37,0,1,0,4.37,4.37,4.37,4.37,0,0,0-4.37-4.37ZM91.64,0A4.37,4.37,0,1,0,96,4.37,4.37,4.37,0,0,0,91.64,0Zm0,17.46A4.36,4.36,0,1,0,96,21.82h0a4.36,4.36,0,0,0-4.36-4.36Zm0,17.45A4.37,4.37,0,1,0,96,39.27a4.37,4.37,0,0,0-4.36-4.36Zm0,17.46A4.36,4.36,0,1,0,96,56.73a4.37,4.37,0,0,0-4.36-4.36h0Zm0,17.45A4.37,4.37,0,1,0,96,74.18a4.37,4.37,0,0,0-4.36-4.36Zm0,17.45A4.37,4.37,0,1,0,96,91.64a4.37,4.37,0,0,0-4.36-4.37Z"/></svg>